<mxfile host="app.diagrams.net" modified="2024-05-29T04:07:07.597Z" agent="Mozilla/5.0 (Windows NT 10.0; Win64; x64) AppleWebKit/537.36 (KHTML, like Gecko) Chrome/125.0.0.0 Safari/537.36" etag="e-SiF1byK7W10wTC-o5d" version="24.4.9" type="github">
  <diagram name="PÃ¡gina-1" id="6p92MlE0h6yKJ3GNaLso">
    <mxGraphModel dx="758" dy="597" grid="1" gridSize="10" guides="1" tooltips="1" connect="1" arrows="1" fold="1" page="1" pageScale="1" pageWidth="827" pageHeight="1169" math="0" shadow="0">
      <root>
        <mxCell id="0" />
        <mxCell id="1" parent="0" />
        <mxCell id="kMHeReTzLb_3fLEKTtnf-3" value="" style="edgeStyle=orthogonalEdgeStyle;rounded=0;orthogonalLoop=1;jettySize=auto;html=1;" edge="1" parent="1" source="kMHeReTzLb_3fLEKTtnf-1" target="kMHeReTzLb_3fLEKTtnf-2">
          <mxGeometry relative="1" as="geometry" />
        </mxCell>
        <mxCell id="kMHeReTzLb_3fLEKTtnf-9" value="" style="edgeStyle=orthogonalEdgeStyle;rounded=0;orthogonalLoop=1;jettySize=auto;html=1;" edge="1" parent="1" source="kMHeReTzLb_3fLEKTtnf-1" target="kMHeReTzLb_3fLEKTtnf-8">
          <mxGeometry relative="1" as="geometry" />
        </mxCell>
        <mxCell id="kMHeReTzLb_3fLEKTtnf-1" value="Inicio" style="ellipse;whiteSpace=wrap;html=1;" vertex="1" parent="1">
          <mxGeometry x="354" y="20" width="120" height="80" as="geometry" />
        </mxCell>
        <mxCell id="kMHeReTzLb_3fLEKTtnf-5" value="" style="edgeStyle=orthogonalEdgeStyle;rounded=0;orthogonalLoop=1;jettySize=auto;html=1;" edge="1" parent="1" source="kMHeReTzLb_3fLEKTtnf-2" target="kMHeReTzLb_3fLEKTtnf-4">
          <mxGeometry relative="1" as="geometry" />
        </mxCell>
        <mxCell id="kMHeReTzLb_3fLEKTtnf-11" value="" style="edgeStyle=orthogonalEdgeStyle;rounded=0;orthogonalLoop=1;jettySize=auto;html=1;" edge="1" parent="1" source="kMHeReTzLb_3fLEKTtnf-2" target="kMHeReTzLb_3fLEKTtnf-10">
          <mxGeometry relative="1" as="geometry" />
        </mxCell>
        <mxCell id="kMHeReTzLb_3fLEKTtnf-2" value="&amp;nbsp;n &amp;lt; 0" style="rhombus;whiteSpace=wrap;html=1;" vertex="1" parent="1">
          <mxGeometry x="377" y="120" width="74" height="70" as="geometry" />
        </mxCell>
        <mxCell id="kMHeReTzLb_3fLEKTtnf-4" value="cout &amp;lt;&amp;lt; &quot;El numero es negativo. Intentelo de nuevo&quot; &amp;lt;&amp;lt; endl" style="whiteSpace=wrap;html=1;" vertex="1" parent="1">
          <mxGeometry x="508" y="125" width="120" height="60" as="geometry" />
        </mxCell>
        <mxCell id="kMHeReTzLb_3fLEKTtnf-8" value="int n" style="shape=parallelogram;perimeter=parallelogramPerimeter;whiteSpace=wrap;html=1;fixedSize=1;" vertex="1" parent="1">
          <mxGeometry x="554" y="30" width="120" height="60" as="geometry" />
        </mxCell>
        <mxCell id="kMHeReTzLb_3fLEKTtnf-13" value="" style="edgeStyle=orthogonalEdgeStyle;rounded=0;orthogonalLoop=1;jettySize=auto;html=1;" edge="1" parent="1" source="kMHeReTzLb_3fLEKTtnf-10" target="kMHeReTzLb_3fLEKTtnf-12">
          <mxGeometry relative="1" as="geometry" />
        </mxCell>
        <mxCell id="kMHeReTzLb_3fLEKTtnf-15" value="" style="edgeStyle=orthogonalEdgeStyle;rounded=0;orthogonalLoop=1;jettySize=auto;html=1;" edge="1" parent="1" source="kMHeReTzLb_3fLEKTtnf-10" target="kMHeReTzLb_3fLEKTtnf-14">
          <mxGeometry relative="1" as="geometry" />
        </mxCell>
        <mxCell id="kMHeReTzLb_3fLEKTtnf-10" value="n &amp;gt; 14" style="rhombus;whiteSpace=wrap;html=1;" vertex="1" parent="1">
          <mxGeometry x="377" y="220" width="74" height="70" as="geometry" />
        </mxCell>
        <mxCell id="kMHeReTzLb_3fLEKTtnf-12" value="cout &amp;lt;&amp;lt; &quot;El numero es muy grande. Intentelo de nuevo&quot; &amp;lt;&amp;lt; endl" style="whiteSpace=wrap;html=1;" vertex="1" parent="1">
          <mxGeometry x="508" y="225" width="120" height="60" as="geometry" />
        </mxCell>
        <mxCell id="kMHeReTzLb_3fLEKTtnf-17" value="" style="edgeStyle=orthogonalEdgeStyle;rounded=0;orthogonalLoop=1;jettySize=auto;html=1;" edge="1" parent="1" source="kMHeReTzLb_3fLEKTtnf-14" target="kMHeReTzLb_3fLEKTtnf-16">
          <mxGeometry relative="1" as="geometry" />
        </mxCell>
        <mxCell id="kMHeReTzLb_3fLEKTtnf-14" value="int o = 1&lt;div&gt;int u = 1&lt;br&gt;&lt;/div&gt;" style="shape=parallelogram;perimeter=parallelogramPerimeter;whiteSpace=wrap;html=1;fixedSize=1;" vertex="1" parent="1">
          <mxGeometry x="354" y="320" width="120" height="35" as="geometry" />
        </mxCell>
        <mxCell id="kMHeReTzLb_3fLEKTtnf-19" value="" style="edgeStyle=orthogonalEdgeStyle;rounded=0;orthogonalLoop=1;jettySize=auto;html=1;" edge="1" parent="1" source="kMHeReTzLb_3fLEKTtnf-16" target="kMHeReTzLb_3fLEKTtnf-18">
          <mxGeometry relative="1" as="geometry" />
        </mxCell>
        <mxCell id="kMHeReTzLb_3fLEKTtnf-24" value="" style="edgeStyle=orthogonalEdgeStyle;rounded=0;orthogonalLoop=1;jettySize=auto;html=1;" edge="1" parent="1" source="kMHeReTzLb_3fLEKTtnf-16" target="kMHeReTzLb_3fLEKTtnf-23">
          <mxGeometry relative="1" as="geometry" />
        </mxCell>
        <mxCell id="kMHeReTzLb_3fLEKTtnf-16" value="o &amp;lt;= n" style="shape=hexagon;perimeter=hexagonPerimeter2;whiteSpace=wrap;html=1;fixedSize=1;" vertex="1" parent="1">
          <mxGeometry x="354" y="380" width="120" height="80" as="geometry" />
        </mxCell>
        <mxCell id="kMHeReTzLb_3fLEKTtnf-21" value="" style="edgeStyle=orthogonalEdgeStyle;rounded=0;orthogonalLoop=1;jettySize=auto;html=1;" edge="1" parent="1" source="kMHeReTzLb_3fLEKTtnf-18" target="kMHeReTzLb_3fLEKTtnf-20">
          <mxGeometry relative="1" as="geometry" />
        </mxCell>
        <mxCell id="kMHeReTzLb_3fLEKTtnf-18" value="u *= o" style="whiteSpace=wrap;html=1;" vertex="1" parent="1">
          <mxGeometry x="538" y="405" width="60" height="30" as="geometry" />
        </mxCell>
        <mxCell id="kMHeReTzLb_3fLEKTtnf-22" style="edgeStyle=orthogonalEdgeStyle;rounded=0;orthogonalLoop=1;jettySize=auto;html=1;exitX=0;exitY=0.25;exitDx=0;exitDy=0;entryX=0.5;entryY=1;entryDx=0;entryDy=0;" edge="1" parent="1" source="kMHeReTzLb_3fLEKTtnf-20" target="kMHeReTzLb_3fLEKTtnf-16">
          <mxGeometry relative="1" as="geometry" />
        </mxCell>
        <mxCell id="kMHeReTzLb_3fLEKTtnf-20" value="++o" style="whiteSpace=wrap;html=1;" vertex="1" parent="1">
          <mxGeometry x="538" y="530" width="60" height="20" as="geometry" />
        </mxCell>
        <mxCell id="kMHeReTzLb_3fLEKTtnf-23" value="cout &amp;lt;&amp;lt; u &amp;lt;&amp;lt; endl" style="whiteSpace=wrap;html=1;" vertex="1" parent="1">
          <mxGeometry x="154" y="390" width="120" height="60" as="geometry" />
        </mxCell>
      </root>
    </mxGraphModel>
  </diagram>
</mxfile>
